# xmcd CD database file
#
# Track frame offsets:
#	225
#	9762
#	20735
#	34396
#	45579
#	56336
#	71103
#	82924
#	92640
#	102956
#	115205
#	125037
#	137436
#	153709
#	165206
#	188581
#	201600
#	214890
#
# Disc length: 2992 seconds
#
# Revision: 0
# Processed by: cddbd v1.5.2PL0 Copyright (c) Steve Scherf et al.
# Submitted via: CDex 1.70beta2
#
DISCID=f40bad12
DTITLE=Johnny - Johny Cash revival?
DYEAR=1900
DGENRE=Country
TTITLE0=Anděl a ďábel
TTITLE1=Dělám, co mám
TTITLE2=Long black veil
TTITLE3=Harley
TTITLE4=Vzpomínka
TTITLE5=Kniha
TTITLE6=Folsom prison blues
TTITLE7=Zvláštní věc
TTITLE8=Velká řeka
TTITLE9=Malá Kate
TTITLE10=Hej fíro
TTITLE11=Stále mi někdo schází
TTITLE12=Línej proud
TTITLE13=Dejte mně pokoj s bavlnou
TTITLE14=Zpověď
TTITLE15=Jackson
TTITLE16=Pozdravujte Rose
TTITLE17=Zvláštní věc
EXTD=
EXTT0=
EXTT1=
EXTT2=
EXTT3=
EXTT4=
EXTT5=
EXTT6=
EXTT7=
EXTT8=
EXTT9=
EXTT10=
EXTT11=
EXTT12=
EXTT13=
EXTT14=
EXTT15=
EXTT16=
EXTT17=
PLAYORDER=
